<svg xmlns="http://www.w3.org/2000/svg" viewBox="0 0 24 24">
  <path fill="#c5c5c5" d="M1.6 6.4 4.4 4.6h3.4L5.2 6.4v11.8l-3.6 1.8z"/>
  <path fill="#9a9a9a" d="M5.2 6.4h2.4v11.8H5.2z"/>
  <path fill="#c5c5c5" d="M9.2 6.4 12 4.6h3.4l-2.6 1.8v11.8l-3.6 1.8z"/>
  <path fill="#9a9a9a" d="M12.8 6.4h2.4v11.8h-2.4z"/>
  <path fill="#8BC34A" d="M21 7.5c0-2.3-2.1-4-5.1-4-3.2 0-5.3 1.7-5.3 4v9c0 2.3 2.1 4 5.3 4 3 0 5.1-1.7 5.1-4h-3.3c0 .8-.7 1.4-1.8 1.4s-2-.6-2-1.4v-9c0-.8.9-1.4 2-1.4s1.8.6 1.8 1.4z"/>
</svg>
